<mxfile host="app.diagrams.net" modified="2024-04-22T13:14:56.908Z" agent="Mozilla/5.0 (Macintosh; Intel Mac OS X 10.15; rv:125.0) Gecko/20100101 Firefox/125.0" version="24.2.7" etag="vaKzYJFNr6ixwIgG1s-Z" type="github">
  <diagram name="Page-1" id="aZTl7uUzjCNNoefpsOVF">
    <mxGraphModel>
      <root>
        <mxCell id="0" />
        <mxCell id="1" parent="0" />
      </root>
    </mxGraphModel>
  </diagram>
</mxfile>
